<svg xmlns="http://www.w3.org/2000/svg" width="24" height="24" viewBox="0 0 24 24"><path d="M4.104 0l-4.104 4.152 18.888 18.799 5.112 1.049-.961-5.203-18.935-18.797zm15.946 21.502c-.167.166-.436.166-.602 0l-17.262-17.124c-.167-.167-.167-.435-.001-.603.166-.166.437-.166.603 0l17.262 17.126c.167.165.166.435 0 .601zm1.544-2.132c.166.166.166.437 0 .603-.166.165-.436.166-.602 0l-17.263-17.126c-.165-.165-.165-.435 0-.601.167-.166.436-.166.601-.001l17.264 17.125zm-2.855-14.067c-.195-.195-.195-.512 0-.707s.512-.195.707 0 .195.512 0 .707-.511.196-.707 0zm-7.734 12.641l-6.055 6.056-4.95-4.908 6.059-6.059 1.419 1.41-.407.407.707.707-.707.707-.707-.707-.707.707.707.707-.707.707-.707-.707-.707.707.707.707-.707.707-.707-.707-.707.708 2.121 2.121 4.657-4.657 1.398 1.387zm2.035-11.892l6.052-6.052 4.908 4.95-6.013 6.014-1.398-1.388 4.625-4.625-2.121-2.121-2.121 2.12.707.707-.708.708-.707-.707-.707.707.707.707-.707.707-.707-.708-.39.39-1.42-1.409z"/></svg>