<svg xmlns="http://www.w3.org/2000/svg" width="103.4" height="44.9" viewBox="0 0 103.4 44.9"><circle cx="21.4" cy="23.5" r="20.9" style="fill:none;stroke:#c7d1d3;stroke-miterlimit:10"/><circle cx="21.4" cy="23.5" r="15.1" style="fill:none;stroke:#c7d1d3;stroke-miterlimit:10"/><line x1="6.6" y1="20.7" x2="33.4" y2="14.4" style="fill:none;stroke:#c7d1d3;stroke-miterlimit:10"/><line x1="9.3" y1="32.4" x2="36.2" y2="26.1" style="fill:none;stroke:#c7d1d3;stroke-miterlimit:10"/><path d="M99.9,1.8C92.4.6,88.4-.3,80.4,1.6s-8.2,6.5-17.5,8.6c-7.6,1.7-13.3.1-19.4-.2" style="fill:none;stroke:#c7d1d3;stroke-miterlimit:10"/><path d="M101,6.8c-7.5-1.2-11.5-2-19.4-.2s-8.3,6.5-17.5,8.6c-7.6,1.8-13.3.2-19.5-.2" style="fill:none;stroke:#c7d1d3;stroke-miterlimit:10"/><path d="M102.2,11.8c-7.5-1.1-11.5-2-19.5-.2s-8.2,6.6-17.5,8.7c-7.6,1.7-13.3.1-19.4-.2" style="fill:none;stroke:#c7d1d3;stroke-miterlimit:10"/><path d="M103.3,16.9c-7.5-1.2-11.5-2-19.4-.2s-8.3,6.5-17.5,8.6c-7.6,1.7-13.3.1-19.5-.2" style="fill:none;stroke:#c7d1d3;stroke-miterlimit:10"/></svg>