<svg xmlns="http://www.w3.org/2000/svg" width="102.7" height="44.1" viewBox="0 0 102.7 44.1"><path d="M21.2,1.7v1A20,20,0,0,1,40.8,18.2a20,20,0,0,1-15,24.3,18.2,18.2,0,0,1-4.6.6A20.2,20.2,0,0,1,4,12.3,20.5,20.5,0,0,1,16.6,3.2a24,24,0,0,1,4.6-.5v-1m0,0a21.2,21.2,0,0,0-4.9.6,21.1,21.1,0,1,0,4.9-.6Z" style="fill:#c7d1d3"/><path d="M21.2,8.5h0a14.4,14.4,0,0,1,3.3,28.4,18.6,18.6,0,0,1-3.3.4,14.3,14.3,0,0,1-14-11.1A13.9,13.9,0,0,1,9,15.3a14.5,14.5,0,0,1,8.9-6.4,12.4,12.4,0,0,1,3.3-.4m0-1a13.4,13.4,0,0,0-3.5.4,15.4,15.4,0,0,0,3.5,30.4,14.8,14.8,0,0,0,3.5-.5A15.3,15.3,0,0,0,21.2,7.5Z" style="fill:#c7d1d3"/><line x1="6.8" y1="20.3" x2="33" y2="14.2" style="fill:none;stroke:#c7d1d3;stroke-miterlimit:10"/><line x1="9.5" y1="32" x2="35.8" y2="25.8" style="fill:none;stroke:#c7d1d3;stroke-miterlimit:10"/><path d="M99.1.9C92,1.5,89-.7,79.7,1.5s-8.3,6-17.5,8.2-10.4-.1-19.4.5" style="fill:none;stroke:#c7d1d3;stroke-miterlimit:10"/><path d="M100.3,5.9c-7.2.5-10.1-1.6-19.4.6s-8.3,6-17.6,8.2S53,14.6,44,15.2" style="fill:none;stroke:#c7d1d3;stroke-miterlimit:10"/><path d="M101.5,10.9c-7.2.5-10.2-1.6-19.4.6s-8.3,6-17.6,8.2-10.3-.1-19.4.5" style="fill:none;stroke:#c7d1d3;stroke-miterlimit:10"/><path d="M102.6,15.9c-7.1.5-10.1-1.6-19.3.6s-8.4,6-17.6,8.1-10.3,0-19.4.6" style="fill:none;stroke:#c7d1d3;stroke-miterlimit:10"/></svg>