<svg xmlns="http://www.w3.org/2000/svg" width="103.4" height="44.9" viewBox="0 0 103.4 44.9"><circle cx="21.4" cy="23.5" r="20.9" fill="none" stroke="#c7d1d3" stroke-miterlimit="10"/><circle cx="21.4" cy="23.5" r="15.1" fill="none" stroke="#c7d1d3" stroke-miterlimit="10"/><path fill="none" stroke="#c7d1d3" stroke-miterlimit="10" d="M6.6 20.7l26.8-6.3m-24.1 18l26.9-6.3M99.9 1.8C92.4.6 88.4-.3 80.4 1.6s-8.2 6.5-17.5 8.6c-7.6 1.7-13.3.1-19.4-.2M101 6.8c-7.5-1.2-11.5-2-19.4-.2s-8.3 6.5-17.5 8.6c-7.6 1.8-13.3.2-19.5-.2m57.6-3.2c-7.5-1.1-11.5-2-19.5-.2s-8.2 6.6-17.5 8.7c-7.6 1.7-13.3.1-19.4-.2m57.5-3.2c-7.5-1.2-11.5-2-19.4-.2s-8.3 6.5-17.5 8.6c-7.6 1.7-13.3.1-19.5-.2"/></svg>