<svg xmlns="http://www.w3.org/2000/svg" width="24" height="24" viewBox="0 0 24 24"><path d="M4.104 0L0 4.152l18.888 18.799L24 24l-.961-5.203L4.104 0zM20.05 21.502a.426.426 0 0 1-.602 0L2.186 4.378a.426.426 0 1 1 .602-.603L20.05 20.901a.424.424 0 0 1 0 .601zm1.544-2.132a.427.427 0 0 1-.602.603L3.729 2.847a.426.426 0 0 1 .601-.602L21.594 19.37zM18.739 5.303a.5.5 0 1 1 .708-.707.5.5 0 0 1-.708.707zm-7.734 12.641L4.95 24 0 19.092l6.059-6.059 1.419 1.41-.407.407.707.707-.707.707-.707-.707-.707.707.707.707-.707.707-.707-.707-.707.707.707.707-.707.707-.707-.707-.707.708 2.121 2.121 4.657-4.657 1.398 1.387zM13.04 6.052L19.092 0 24 4.95l-6.013 6.014-1.398-1.388 4.625-4.625-2.121-2.121-2.121 2.12.707.707-.708.708-.707-.707-.707.707.707.707-.707.707-.707-.708-.39.39-1.42-1.409z"/></svg>