<svg xmlns="http://www.w3.org/2000/svg" width="24" height="24" viewBox="0 0 24 24"><path d="M7 10H2.917l1.271-1.396L5 9l.676-.862L7 10zm.88 3H0V5h9.204C9.943 6.612 11.228 6.696 13 7.509v4.648c-1.638-.182-3.985-.26-5.12.843zM8 7H2v4h6V7zm9.17-1.833C16.364 4.002 12.139 3.243 10.428 3c-.169.727.111 1.643.859 2.076.729.422 2.847 1.078 3.473 1.702.812.808 2.026 4.668.028 7.282-2.076-.589-4.24-.527-5.415-.048-1.153.47-1.013 1.908.189 2.045 3.42.39 7.587 1.161 10.322 4.943 0 0 1.821-1.885 4.115-4.426-3.668-3.053-4.198-7.606-6.829-11.407zM3.25 8a.25.25 0 1 0 0 .5.25.25 0 0 0 0-.5z"/></svg>